<svg xmlns="http://www.w3.org/2000/svg" viewBox="0 0 64 64"><path fill="#222" d="M53.56 46h-27.7A5 5 0 0 1 21 42.31L12.23 9.74a1 1 0 0 0-1-.74H4.56a2 2 0 1 1 0-4h6.7a5 5 0 0 1 4.83 3.7l8.8 32.56a1 1 0 0 0 1 .74h27.7a2 2 0 0 1 0 4Z"/><path fill="#222" d="M21.7 39.13a2 2 0 0 1 0-4L54 35l3.38-13.53A2 2 0 0 0 55.44 19H16.26a2 2 0 0 1 0-4h39.18a6 6 0 0 1 5.82 7.46l-3.76 15A2 2 0 0 1 55.57 39l-33.86.13zM55.56 37zm-27 22a6 6 0 1 1 6-6 6 6 0 0 1-6 6zm0-8a2 2 0 1 0 2 2 2 2 0 0 0-2-2zm21 8a6 6 0 1 1 6-6 6 6 0 0 1-6 6zm0-8a2 2 0 1 0 2 2 2 2 0 0 0-2-2z"/></svg>